<?xml version="1.0" encoding="UTF-8"?>
<svg id="Ebene_1" data-name="Ebene 1" xmlns="http://www.w3.org/2000/svg" viewBox="0 0 1090.59 341.99">
  <defs>
    <style>
      .cls-1 {
        fill: #f6f6ee;
      }

      .cls-2 {
        font-family: Poppins-Medium, Poppins;
        font-size: 130px;
        font-weight: 500;
      }
    </style>
  </defs>
  <g>
    <path d="M168.15,162.89s-.04,0-.06,0c-.88-14.36-6.6-27.4-15.55-37.53.01-.01.03-.03.05-.04,1.52-1.52,1.52-4,0-5.52s-4-1.52-5.52,0c-.01.01-.03.03-.04.05-9.89-8.74-22.57-14.4-36.53-15.48,0-.04,0-.08,0-.13,0-2.16-1.75-3.9-3.9-3.9s-3.9,1.75-3.9,3.9c0,0,0,0,0,0-14.75.67-28.17,6.45-38.54,15.6-.01-.01-.03-.03-.04-.05-1.52-1.52-4-1.52-5.52,0s-1.52,4,0,5.52c.01.01.03.03.05.04-8.95,10.13-14.67,23.18-15.55,37.53-.02,0-.04,0-.06,0-2.16,0-3.9,1.75-3.9,3.9s1.75,3.9,3.9,3.9c.02,0,.04,0,.06,0,.89,14.47,6.69,27.61,15.76,37.78-1.38,1.53-1.33,3.89.14,5.36,1.48,1.48,3.86,1.52,5.39.11,10.33,9.04,23.67,14.73,38.31,15.4,0,0,0,0,0,0,0,2.16,1.75,3.9,3.9,3.9s3.9-1.75,3.9-3.9c0-.04,0-.08,0-.13,14.24-1.1,27.14-6.97,37.11-16,.14.2.29.39.47.56,1.52,1.52,4,1.52,5.52,0s1.52-4,0-5.52c-.2-.2-.41-.37-.64-.51,8.71-10.06,14.26-22.93,15.13-37.06.02,0,.04,0,.06,0,2.16,0,3.9-1.75,3.9-3.9s-1.75-3.9-3.9-3.9Z"/>
    <circle class="cls-1" cx="105.59" cy="166.79" r="56.04"/>
    <path d="M65.59,102.07c.77,1.33,1.89,2.26,2.99,2.59.22.41.45.8.65,1.15l13.87,27.2,57.43,99.42c.94,1.63,3.04,2.19,4.67,1.25s2.19-3.04,1.25-4.67l-57.43-99.42-16.52-25.82c-.21-.36-.46-.78-.73-1.19.17-1.07-.09-2.39-.8-3.62-1.27-2.2-3.5-3.29-4.99-2.44s-1.65,3.33-.38,5.54Z"/>
    <path d="M140.03,98.6c-.77,1.34-1,2.77-.74,3.88-.24.4-.47.79-.67,1.14l-16.57,25.65-57.16,99.58c-.94,1.63-.37,3.73,1.26,4.66s3.73.37,4.66-1.26l57.16-99.58,14.04-27.25c.21-.37.44-.79.66-1.23,1.01-.39,2.02-1.28,2.72-2.51,1.27-2.21,1.09-4.68-.4-5.54s-3.71.25-4.98,2.45Z"/>
  </g>
  <text class="cls-2" transform="translate(203.78 211.51)"><tspan x="0" y="0">Drumporium</tspan></text>
</svg>